<svg width="220" height="64" viewBox="0 0 220 64" fill="none" xmlns="http://www.w3.org/2000/svg">
    <rect width="64" height="64" rx="14" fill="#111111"/>
    <path d="M17 36.5h30l-3.8-10.2A5 5 0 0 0 38.5 23h-13a5 5 0 0 0-4.7 3.3L17 36.5Z" fill="#F4A340"/>
    <path d="M21 36.5h22.2l-2.6-7a3 3 0 0 0-2.8-2H26.4a3 3 0 0 0-2.8 2L21 36.5Z" fill="#111111"/>
    <path d="M13 38h38a2 2 0 0 1 2 2v5H11v-5a2 2 0 0 1 2-2Z" fill="#F4A340"/>
    <circle cx="22" cy="45" r="4" fill="#111111"/>
    <circle cx="42" cy="45" r="4" fill="#111111"/>
    <path d="M47.5 13l1.6 4.4 4.4 1.6-4.4 1.6-1.6 4.4-1.6-4.4-4.4-1.6 4.4-1.6L47.5 13Z" fill="#FFFFFF"/>
    <path d="M12 17.5h11" stroke="#F4A340" stroke-width="4" stroke-linecap="round"/>
    <path d="M12 25.5h7" stroke="#F4A340" stroke-width="4" stroke-linecap="round"/>
    <text x="78" y="38" fill="#111111" font-family="Arial, Helvetica, sans-serif" font-size="28" font-weight="800">CarSpa</text>
    <text x="80" y="52" fill="#6B6B6B" font-family="Arial, Helvetica, sans-serif" font-size="11" font-weight="700" letter-spacing="2">AUTO CLEANING</text>
</svg>
